<?xml version="1.0" encoding="utf-8"?>
<!-- Generator: Adobe Illustrator 18.0.0, SVG Export Plug-In . SVG Version: 6.00 Build 0)  -->
<!DOCTYPE svg PUBLIC "-//W3C//DTD SVG 1.1//EN" "http://www.w3.org/Graphics/SVG/1.1/DTD/svg11.dtd">
<svg version="1.1" xmlns="http://www.w3.org/2000/svg" xmlns:xlink="http://www.w3.org/1999/xlink" x="0px" y="0px"
	 viewBox="0 0 300 40" enable-background="new 0 0 300 40" xml:space="preserve">
<g id="Layer_1">
	<g>
		<path fill="#CC3333" d="M9,38.2H3V2.5h9.4l10.8,22.4L33.9,2.5h9.4v35.7h-6V10.3L24.8,35.1h-3.4L9,10.3V38.2z"/>
		<path fill="#CC3333" d="M58.8,30.1l-3.6,8.1h-6.4L64.5,2.5h6.4l15.7,35.7h-6.4l-3.6-8.1H58.8z M74.2,24.5L67.7,9.8l-6.5,14.7H74.2
			z"/>
		<path fill="#CC3333" d="M102.6,38.2h-6.1V24.1L83.1,2.5h6.6l9.8,16.3l9.8-16.3h6.6l-13.3,21.6V38.2z"/>
		<path fill="#CC3333" d="M148,7.1c3.4,3.1,5.2,7.5,5.2,13c0,5.6-1.7,9.9-5,13.2c-3.3,3.2-8.5,4.9-15.3,4.9H121V2.5h12.3
			C139.7,2.5,144.6,4,148,7.1z M147.1,20.3c0-8.2-4.7-12.3-14.1-12.3h-6v24.5h6.7c4.3,0,7.6-1,9.9-3.1
			C146,27.4,147.1,24.3,147.1,20.3z"/>
		<path fill="#CC3333" d="M164.9,30.1l-3.6,8.1h-6.4l15.7-35.7h6.4l15.7,35.7h-6.4l-3.6-8.1H164.9z M180.3,24.5l-6.5-14.7l-6.5,14.7
			H180.3z"/>
		<path fill="#CC3333" d="M208.2,38.2h-6.1V24.1L188.8,2.5h6.6l9.8,16.3l9.8-16.3h6.6l-13.3,21.6V38.2z"/>
		<path fill="#313945" d="M220.2,37.5c-0.7-0.7-1.1-1.7-1.1-2.7c0-1.1,0.4-2,1.1-2.7c0.7-0.7,1.6-1.1,2.7-1.1c1.1,0,2,0.4,2.7,1.1
			c0.7,0.7,1.1,1.6,1.1,2.7c0,1.1-0.4,2-1.1,2.7c-0.7,0.7-1.7,1.1-2.7,1.1C221.9,38.6,221,38.2,220.2,37.5z"/>
		<path fill="#313945" d="M242.9,30c1.6,1.9,3.8,2.9,6.6,2.9c2.8,0,5-1,6.6-2.9c1.6-1.9,2.5-4.5,2.5-7.8V2.5h6v20
			c0,5.1-1.4,9.1-4.2,11.9c-2.8,2.8-6.5,4.2-10.9,4.2c-4.4,0-8.1-1.4-10.9-4.2c-2.8-2.8-4.2-6.7-4.2-11.9v-20h6v19.8
			C240.4,25.5,241.3,28.1,242.9,30z"/>
		<path fill="#313945" d="M284,7.2c-1.8,0-3.2,0.4-4.3,1.1C278.6,9,278,10,278,11.5c0,1.4,0.6,2.6,1.7,3.3c1.1,0.8,3.5,1.6,7.2,2.5
			c3.7,0.9,6.4,2.1,8.3,3.7c1.9,1.6,2.8,4,2.8,7.1c0,3.1-1.2,5.6-3.5,7.6c-2.4,1.9-5.4,2.9-9.3,2.9c-5.6,0-10.5-1.9-14.9-5.8
			l3.8-4.5c3.6,3.1,7.4,4.7,11.2,4.7c1.9,0,3.5-0.4,4.6-1.3c1.1-0.8,1.7-1.9,1.7-3.3c0-1.4-0.5-2.5-1.6-3.2
			c-1.1-0.8-2.9-1.5-5.5-2.1c-2.6-0.6-4.6-1.2-6-1.7c-1.4-0.5-2.6-1.2-3.6-2.1c-2.1-1.6-3.2-4.1-3.2-7.4c0-3.3,1.2-5.9,3.6-7.6
			c2.4-1.8,5.4-2.7,8.9-2.7c2.3,0,4.5,0.4,6.8,1.1c2.2,0.7,4.2,1.8,5.8,3.2l-3.2,4.5c-1.1-1-2.5-1.7-4.3-2.4
			C287.5,7.5,285.8,7.2,284,7.2z"/>
	</g>
	<rect id="_x3C_Slice_x3E_" fill="none" width="300" height="40"/>
</g>
<g id="Layer_2">
</g>
</svg>
